<svg xmlns="http://www.w3.org/2000/svg" width="163" height="62" viewBox="0 0 163 62" fill="none" role="img" aria-label="Gyrusiq logo">
  <defs>
    <linearGradient id="gyrusiqBadge" x1="20" y1="11" x2="20" y2="51" gradientUnits="userSpaceOnUse">
      <stop stop-color="#D5DBE6"/>
      <stop offset="1" stop-color="#04070D"/>
    </linearGradient>
    <linearGradient id="gyrusiqText" x1="96" y1="11" x2="96" y2="51" gradientUnits="userSpaceOnUse">
      <stop stop-color="#D5DBE6"/>
      <stop offset="1" stop-color="#04070D"/>
    </linearGradient>
  </defs>

  <circle cx="20" cy="31" r="20" fill="url(#gyrusiqBadge)"/>
  <path
    d="M27.4 25.2C26.2 21.5 22.8 19 18.9 19C13.9 19 10 23 10 28.1V33.8C10 38.9 13.9 43 18.9 43C23.4 43 27.2 39.7 27.9 35.3H20.5V31.2H32C32 31.7 32.1 32.2 32.1 32.8C32.1 41 26.1 47 18.9 47C11.6 47 5.7 41 5.7 33.8V28.1C5.7 20.8 11.6 14.8 18.9 14.8C25.1 14.8 30.5 19.1 31.9 25.2H27.4Z"
    fill="#04070D"
  />

  <g fill="url(#gyrusiqText)">
    <text x="50" y="39" font-family="Inter, Arial, sans-serif" font-size="28" font-weight="700" letter-spacing="-0.04em">
      Gyrusiq
    </text>
  </g>
</svg>
